<?xml version="1.0" encoding="utf-8"?>
<!-- Generator: Adobe Illustrator 19.2.1, SVG Export Plug-In . SVG Version: 6.00 Build 0)  -->
<svg version="1.1" id="Layer_1" xmlns="http://www.w3.org/2000/svg" xmlns:xlink="http://www.w3.org/1999/xlink" x="0px" y="0px"
	 viewBox="0 0 350 350" style="enable-background:new 0 0 350 350;" xml:space="preserve">
<g>
	<path d="M283.6,302.3h7.9c0.4-7.6,4.5-15.9,14.3-15.9c9.5,0,13.8,8.7,14.3,15.9h7.9c-0.1-13.5-7.4-23.5-22.3-23.7
		C291.1,278.5,283.6,289,283.6,302.3z M278.8,309.8v27c0,4,0.9,5.1,4.8,5.1h44.5c4.1,0,4.8-1.1,4.8-5.1v-27c0-3.9-0.7-4.4-4.8-4.4
		h-44.5C279.7,305.4,278.8,306.1,278.8,309.8z M310.9,321c0,2.2-1.4,4.3-3.4,5l3.2,8.1H301l3.2-8.1c-2-0.7-3.4-2.7-3.4-4.9
		c0-2.8,2.3-5.1,5.1-5.1S310.9,318.2,310.9,321z"/>
</g>
<path d="M175.2,10c87,0,157.6,70.6,157.6,157.6c0,87-70.6,157.6-157.6,157.6c-87,0-157.6-70.6-157.6-157.6
	C17.6,80.6,88.2,10,175.2,10z M175.2,197.4c21.3,0,38.5-16.8,38.5-37.6V98.3c0-20.8-17.2-37.6-38.5-37.6s-38.5,16.8-38.5,37.6v61.5
	C136.7,180.5,154,197.4,175.2,197.4z M244,144c-1.8-12.3-16.4-6.3-14.7,0c11.9,89.1-117.2,97.2-107.7-0.1c-1.9-10.8-15-6.9-15,0.1
	c-3.1,52.9,27.8,79.9,61.2,83.4v16.5h-31c-3.9,0-7,3.4-7,7.6c0,4.2,3.1,7.6,7,7.6h77c3.9,0,7-3.4,7-7.6c0-4.2-3.1-7.6-7-7.6h-31
	v-16.6C217.2,223.5,249.1,195,244,144z"/>
</svg>
