<?xml version="1.0" encoding="utf-8"?>
<!-- Generator: Adobe Illustrator 19.2.1, SVG Export Plug-In . SVG Version: 6.00 Build 0)  -->
<svg version="1.1" id="Layer_1" xmlns="http://www.w3.org/2000/svg" xmlns:xlink="http://www.w3.org/1999/xlink" x="0px" y="0px"
	 viewBox="0 0 350 350" style="enable-background:new 0 0 350 350;" xml:space="preserve">
<g>
	<g>
		<path d="M272.9,282.5h7.4c0.4-7.1,4.1-14.7,13.3-14.7c8.8,0,12.8,8.1,13.3,14.7h7.4c-0.1-12.5-6.9-21.8-20.7-22
			C279.9,260.4,272.9,270.2,272.9,282.5z M268.5,289.6v25.1c0,3.7,0.8,4.8,4.4,4.8h41.3c3.8,0,4.4-1,4.4-4.8v-25.1
			c0-3.6-0.7-4.1-4.4-4.1h-41.3C269.4,285.5,268.5,286.1,268.5,289.6z M298.3,299.9c0,2.1-1.3,4-3.2,4.6l2.9,7.5h-8.9l2.9-7.5
			c-1.9-0.6-3.2-2.5-3.2-4.5c0-2.6,2.1-4.7,4.7-4.7C296.2,295.2,298.3,297.3,298.3,299.9z"/>
	</g>
	<path d="M31.3,30.5v289h228.8V78.7l-48.2-48.2H31.3z M242,301.4H49.4V48.6h150.5v42.1H242V301.4z M211.9,78.7V56.1l22.6,22.6H211.9
		z"/>
	<rect x="73.5" y="259.3" width="72.2" height="12"/>
	<rect x="73.5" y="223.2" width="144.5" height="12"/>
	<rect x="73.5" y="187" width="144.5" height="12"/>
	<rect x="73.5" y="150.9" width="144.5" height="12"/>
	<rect x="73.5" y="114.8" width="144.5" height="12"/>
</g>
</svg>
