<?xml version="1.0" encoding="utf-8"?>
<!-- Generator: Adobe Illustrator 19.2.1, SVG Export Plug-In . SVG Version: 6.00 Build 0)  -->
<svg version="1.1" id="Layer_1" xmlns="http://www.w3.org/2000/svg" xmlns:xlink="http://www.w3.org/1999/xlink" x="0px" y="0px"
	 viewBox="0 0 350 350" style="enable-background:new 0 0 350 350;" xml:space="preserve">
<g>
	<path d="M40.7,146.4L10.6,258.9c-2.5,9.4,3.1,19,12.4,21.5l57.8,15.5L40.7,146.4z"/>
	<path d="M74,180.2l33.3,124.2c2.5,9.4,12.1,14.9,21.5,12.4l64.6-17.3L74,180.2z"/>
	<path d="M173.7,151.4c-1-1.8-2.3-3.4-3.8-4.9l-5.1-4.9c-1.5-1.5-3.2-2.7-5.1-3.6c-1.8-0.9-3.7-1.5-5.6-1.7c-1.9-0.2-3.8,0-5.8,0.8
		c-1.9,0.7-3.8,1.9-5.4,3.7c-1.7,1.8-2.9,3.7-3.5,5.6c-0.6,1.9-0.8,3.9-0.5,5.8c0.3,1.9,0.9,3.8,1.9,5.6c1,1.8,2.3,3.5,3.8,4.9
		l5.1,4.9c1.5,1.5,3.2,2.7,5,3.6c1.8,0.9,3.7,1.5,5.6,1.6c1.9,0.2,3.9-0.1,5.8-0.8c1.9-0.7,3.8-2,5.5-3.7c1.7-1.7,2.8-3.6,3.4-5.5
		c0.6-1.9,0.8-3.9,0.5-5.7C175.3,155,174.7,153.2,173.7,151.4z"/>
	<path d="M334.9,159.6L192.8,17.6l-100.7,0c-12.9,0-23.4,10.5-23.4,23.4l0,100.7l142.1,142.1c6.9,6.9,18,6.9,24.8,0l99.3-99.3
		C341.7,177.6,341.7,166.5,334.9,159.6z M121,69.9c-6.9,6.9-18,6.9-24.8,0c-6.8-6.9-6.9-18,0-24.8c6.9-6.9,18-6.9,24.8,0
		C127.9,52,127.9,63.1,121,69.9z M185.8,166.1c-1.3,3.4-3.4,6.6-6.3,9.7c-3,3.1-6.1,5.3-9.5,6.7c-3.4,1.4-6.8,2.1-10.2,2.1
		c-3.4,0-6.8-0.7-10-2.1c-3.3-1.4-6.2-3.4-8.9-6l-5.1-4.9c-2.7-2.6-4.8-5.5-6.3-8.7c-1.5-3.2-2.4-6.5-2.5-9.9
		c-0.2-3.4,0.4-6.8,1.7-10.3c1.3-3.4,3.4-6.7,6.3-9.7c3-3.1,6.1-5.3,9.5-6.7c3.4-1.4,6.8-2.1,10.2-2c3.4,0.1,6.7,0.8,10,2.2
		c3.2,1.4,6.2,3.4,8.9,6l5.1,4.9c2.7,2.6,4.8,5.4,6.3,8.6c1.5,3.2,2.4,6.5,2.5,9.9C187.6,159.3,187,162.7,185.8,166.1z M216.5,219.4
		l-29.7-118.7l11-2.7l29.7,118.7L216.5,219.4z M284.5,171.6c-1.3,3.4-3.4,6.6-6.3,9.7c-3,3.1-6.1,5.3-9.5,6.7
		c-3.4,1.4-6.8,2.1-10.2,2.1c-3.4,0-6.8-0.7-10-2.1c-3.2-1.4-6.2-3.4-8.9-6l-5.1-4.9c-2.7-2.6-4.8-5.5-6.3-8.7
		c-1.5-3.2-2.4-6.5-2.5-9.9c-0.1-3.4,0.4-6.8,1.7-10.3c1.3-3.4,3.4-6.7,6.3-9.7c3-3.1,6.1-5.3,9.5-6.7c3.4-1.4,6.8-2.1,10.2-2.1
		c3.4,0,6.7,0.7,10,2.2c3.3,1.4,6.2,3.4,8.9,6l5.1,4.9c2.7,2.6,4.8,5.5,6.3,8.7c1.5,3.2,2.4,6.5,2.5,9.9
		C286.3,164.7,285.8,168.1,284.5,171.6z"/>
	<path d="M272.4,156.8c-1-1.8-2.3-3.4-3.8-4.9l-5.1-4.9c-1.5-1.5-3.2-2.7-5.1-3.6c-1.8-0.9-3.7-1.5-5.6-1.7
		c-1.9-0.2-3.8,0.1-5.8,0.8c-1.9,0.7-3.8,1.9-5.4,3.7c-1.7,1.7-2.8,3.6-3.4,5.5c-0.6,1.9-0.8,3.9-0.6,5.8c0.2,1.9,0.8,3.8,1.8,5.6
		c1,1.8,2.3,3.5,3.8,4.9l5.1,4.9c1.5,1.5,3.2,2.7,5.1,3.6c1.8,0.9,3.7,1.5,5.7,1.7c1.9,0.2,3.9-0.1,5.8-0.8c1.9-0.7,3.8-2,5.5-3.7
		c1.7-1.7,2.8-3.6,3.4-5.5c0.6-1.9,0.8-3.9,0.5-5.8C274,160.4,273.4,158.5,272.4,156.8z"/>
</g>
</svg>
