<?xml version="1.0" encoding="utf-8"?>
<!-- Generator: Adobe Illustrator 19.2.1, SVG Export Plug-In . SVG Version: 6.00 Build 0)  -->
<svg version="1.1" id="Layer_1" xmlns="http://www.w3.org/2000/svg" xmlns:xlink="http://www.w3.org/1999/xlink" x="0px" y="0px"
	 viewBox="0 0 350 350" style="enable-background:new 0 0 350 350;" xml:space="preserve">
<g>
	<path d="M156.3,265h7.7c0.4-7.4,4.3-15.4,13.9-15.4c9.2,0,13.4,8.4,13.9,15.4h7.7c-0.1-13.1-7.2-22.8-21.6-22.9
		C163.5,242,156.3,252.1,156.3,265z M151.6,272.4v26.2c0,3.8,0.9,5,4.6,5h43.1c4,0,4.6-1.1,4.6-5v-26.2c0-3.8-0.7-4.3-4.6-4.3h-43.1
		C152.5,268.1,151.6,268.8,151.6,272.4z M182.7,283.2c0,2.2-1.4,4.2-3.3,4.8l3.1,7.8h-9.2l3.1-7.8c-1.9-0.6-3.3-2.6-3.3-4.7
		c0-2.7,2.2-4.9,4.9-4.9S182.7,280.4,182.7,283.2z"/>
</g>
<g>
	<path d="M44.5,227.8c0.8-7.3,2.4-14.9,4.7-22.5c1.8,5.8,4.9,11.2,9.2,15.7C53.4,222.9,48.8,225.2,44.5,227.8z M246,129.7
		c-1.5-0.4-2.7-1.7-3-3.3c-0.3-1.6,0.3-3.2,1.6-4.1c9.7-7.1,15.2-18,15.2-29.8c0-20.5-16.7-37.2-37.2-37.2s-37.2,16.7-37.2,37.2
		c0,11.8,5.5,22.7,15.2,29.9c1.3,0.9,1.9,2.5,1.6,4.1c-0.3,1.6-1.5,2.8-3,3.2c-6.6,1.8-13.1,4.5-19.2,7.9c-1.3,0.7-2.8,0.7-4.1,0
		c-6.1-3.4-12.6-6.1-19.2-7.9c-1.5-0.4-2.7-1.7-3-3.3c-0.3-1.6,0.3-3.2,1.6-4.1c9.6-7.1,15.2-18,15.2-29.9
		c0-20.5-16.7-37.2-37.2-37.2S96.1,71.9,96.1,92.5c0,11.8,5.5,22.7,15.2,29.9c1.3,0.9,1.9,2.5,1.6,4.1c-0.3,1.6-1.4,2.8-3,3.3
		c-12.5,3.5-24.2,12.6-34.1,24.6c4-1.3,8.2-2,12.5-2c22.6,0,41,18.4,41,41c0,10.5-3.9,20.3-11,27.8c6.4,2.4,12.3,5.5,17.8,9.2
		c5.7-3.2,11.7-5.7,18.1-7.5c-9.1-6.7-15-17.4-15-29.5c0-20.3,16.5-36.8,36.8-36.8s36.8,16.5,36.8,36.8c0,12.1-6,22.8-15,29.5
		c6.4,1.8,12.5,4.3,18.1,7.5c5.5-3.7,11.5-6.8,17.8-9.2c-7.1-7.5-11-17.3-11-27.8c0-22.6,18.4-41,41-41c5.8,0,11.2,1.2,16.2,3.4
		C270.2,142.8,258.6,133.2,246,129.7z M293.7,221.1c4.9,1.8,9.6,4.1,14,6.8c-0.8-7.7-2.3-15.6-4.5-23.5
		C301.4,210.6,298.2,216.3,293.7,221.1z M106,223.6c-0.3-1.6,0.3-3.2,1.6-4.1c8.5-6.3,13.3-15.8,13.3-26.2c0-18-14.6-32.6-32.6-32.6
		s-32.6,14.6-32.6,32.6c0,10.4,4.9,19.9,13.3,26.2c1.3,0.9,1.9,2.5,1.6,4.1c-0.3,1.6-1.4,2.8-3,3.2c-32,8.9-54.8,37.5-56.6,70.3
		h83.6c1.3-25.5,14.3-47.8,33.8-61.9c-6-3.6-12.4-6.5-19.4-8.5C107.4,226.4,106.3,225.1,106,223.6z M284.4,226.8
		c-1.5-0.4-2.7-1.7-3-3.2c-0.3-1.6,0.3-3.2,1.6-4.1c8.5-6.3,13.3-15.8,13.3-26.2c0-18-14.6-32.6-32.6-32.6
		c-18,0-32.6,14.6-32.6,32.6c0,10.4,4.9,19.9,13.3,26.2c1.3,0.9,1.9,2.5,1.6,4.1c-0.3,1.6-1.5,2.8-3,3.2c-6.9,1.9-13.4,4.8-19.4,8.5
		c19.5,14,32.5,36.4,33.8,61.9H341C339.2,264.3,316.4,235.7,284.4,226.8z"/>
</g>
</svg>
