<?xml version="1.0" encoding="utf-8"?>
<!-- Generator: Adobe Illustrator 19.2.1, SVG Export Plug-In . SVG Version: 6.00 Build 0)  -->
<svg version="1.1" id="Layer_1" xmlns="http://www.w3.org/2000/svg" xmlns:xlink="http://www.w3.org/1999/xlink" x="0px" y="0px"
	 viewBox="0 0 350 350" style="enable-background:new 0 0 350 350;" xml:space="preserve">
<g>
	<path d="M134.4,260.7c2.4-0.9,4.6-2.5,6.3-4.5l104.5-127.3c2.5-3.1,3.7-6.9,3.3-10.9c-0.4-4-2.3-7.5-5.4-10l-63.7-52.3
		c-4.1-3.4-9.7-4.3-14.7-2.4c-2.4,0.9-4.6,2.5-6.3,4.5L53.9,185.1c-2.5,3.1-3.7,6.9-3.3,10.9c0.4,4,2.3,7.5,5.4,10l63.7,52.3
		C123.8,261.7,129.4,262.6,134.4,260.7z M62.5,192.2L167,64.9c0.4-0.5,1-0.9,1.5-1.1c1.2-0.4,2.6-0.3,3.6,0.6l63.7,52.3
		c1.6,1.3,1.8,3.6,0.5,5.2L131.9,249.1c-0.4,0.5-1,0.9-1.5,1.1c-1.2,0.4-2.6,0.3-3.6-0.6l-63.7-52.3
		C61.5,196.1,61.3,193.8,62.5,192.2z"/>
	<path d="M123.4,180.5l20.9-4.5c0.8-0.1,1.6,0.2,2.2,0.9l12,17.4c0.9,1,2.1,1.2,3.2,0.8c0.5-0.2,0.9-0.5,1.2-0.9
		c0.3-0.3,0.5-0.8,0.6-1.3l2.2-21c0.1-0.4,0.3-0.8,0.5-1.1c0.3-0.3,0.6-0.6,1-0.7l20.2-6.2c0.5-0.2,0.8-0.5,1.1-0.8
		c1.1-1.3,0.8-3.4-0.8-4.3l-19.4-8.3c-0.7-0.4-1.2-1.2-1.3-2l0.3-21.4c-0.2-2-2.2-3.1-3.9-2.5c-0.3,0.1-0.6,0.3-0.9,0.6l-13.9,16.1
		c-0.2,0.2-0.5,0.4-0.8,0.5c-0.5,0.2-1,0.2-1.5,0.1l-20.2-7.2c-0.6-0.1-1.2-0.1-1.7,0.1c-0.5,0.2-0.9,0.5-1.2,0.9
		c-0.7,0.8-0.9,1.9-0.4,3l11,18.4c0.3,0.8,0.3,1.6-0.1,2.3l-13,16.8C119.4,178.2,121.1,180.7,123.4,180.5z"/>
	<path d="M340.4,170.1l-39.5-72.6c-2.2-4.1-6.5-6.7-11.2-6.9c-2.3-0.1-4.6,0.5-6.6,1.6c-2.6,1.4-5.4,2.2-8.3,2.4
		c0.5-3.7,2-7.2,4.4-10.2c4.6-5.6,3.8-13.8-1.8-18.4l-63.6-52.2c-3.6-3-8.6-3.8-12.9-2.1c-2.1,0.8-4,2.2-5.5,3.9
		c-2.3,2.8-5.3,4.9-8.6,6.2c-6.9,2.6-14.6,1.3-20.3-3.3c-3.6-3-8.6-3.8-12.9-2.1c-2.1,0.8-4,2.2-5.5,3.9L15.1,182.2
		c-4.6,5.6-3.8,13.8,1.8,18.4c4.2,3.5,6.9,8.4,7.4,13.9c0.5,5.5-1.1,10.8-4.6,15.1c-4.6,5.6-3.8,13.8,1.8,18.4L48,269.7l25,45.9
		c2.2,4.1,6.5,6.7,11.2,6.9c2.3,0.1,4.6-0.5,6.6-1.6c3.2-1.7,6.8-2.6,10.4-2.5c7.4,0.2,14.1,4.3,17.7,10.8c2.2,4.1,6.5,6.7,11.2,6.9
		c2.3,0.1,4.6-0.5,6.6-1.6l184.9-100.5c6.4-3.5,8.7-11.5,5.3-17.8c-2.6-4.9-3.2-10.4-1.7-15.7c1.6-5.3,5.1-9.7,9.9-12.3
		C341.5,184.5,343.9,176.5,340.4,170.1z M28.5,236.7c5.4-6.6,7.9-14.8,7.1-23.3c-0.8-8.4-4.9-16.1-11.5-21.5
		c-0.8-0.7-0.9-1.8-0.3-2.6L156.6,27.4c0.7-0.8,1.9-0.9,2.6-0.3c8.8,7.2,20.8,9.2,31.4,5.2c5.2-2,9.8-5.3,13.3-9.6
		c0.7-0.8,1.9-0.9,2.6-0.3l63.6,52.2c0.8,0.7,0.9,1.8,0.3,2.6c-5.4,6.6-7.9,14.8-7.1,23.3c0.8,8.4,4.9,16.1,11.5,21.5
		c0.8,0.7,0.9,1.8,0.3,2.6L142.3,286.6c-0.7,0.8-1.9,0.9-2.6,0.3c-8.8-7.2-20.8-9.2-31.4-5.2c-5.2,2-9.8,5.3-13.3,9.6
		c-0.6,0.8-1.9,0.9-2.6,0.3l-63.6-52.2C27.9,238.7,27.8,237.5,28.5,236.7z M282.7,201.6c1,1.8,0.3,4-1.5,5l-106,57.7l85.2-103.8
		L282.7,201.6z M329.7,178.1c-7.5,4.1-13,10.8-15.4,19c-2.4,8.2-1.5,16.8,2.6,24.3c0.5,0.9,0.2,2.1-0.8,2.6L131.3,324.5
		c-0.9,0.5-2.1,0.1-2.6-0.8c-5.4-10-15.9-16.4-27.3-16.7c-5.6-0.1-11.1,1.2-16.1,3.9c-0.9,0.5-2.1,0.1-2.6-0.8l-11.7-21.5l14,11.5
		c3.6,3,8.6,3.8,12.9,2.1c2.1-0.8,4-2.2,5.5-3.9c2.3-2.8,5.3-4.9,8.6-6.2c6.9-2.6,14.6-1.3,20.3,3.3c3.6,3,8.6,3.8,12.9,2.1
		c2.1-0.8,4-2.2,5.5-3.9l5.1-6.2l130.4-70.9c3.5-1.9,6.1-5.1,7.2-8.9c1.1-3.8,0.7-7.9-1.2-11.4L268,151.1l15.8-19.3
		c4.6-5.6,3.8-13.8-1.8-18.4c-2.5-2.1-4.4-4.7-5.7-7.6c4.2-0.4,8.3-1.6,12.1-3.7c0.9-0.5,2.1-0.1,2.6,0.8l39.5,72.6
		C331,176.4,330.7,177.6,329.7,178.1z"/>
</g>
</svg>
